<?xml version="1.0" encoding="UTF-8" standalone="no"?>
<!-- Created with Inkscape (http://www.inkscape.org/) -->
<svg xmlns:dc="http://purl.org/dc/elements/1.1/" xmlns:cc="http://creativecommons.org/ns#" xmlns:rdf="http://www.w3.org/1999/02/22-rdf-syntax-ns#" xmlns:svg="http://www.w3.org/2000/svg" xmlns="http://www.w3.org/2000/svg" xmlns:sodipodi="http://sodipodi.sourceforge.net/DTD/sodipodi-0.dtd" xmlns:inkscape="http://www.inkscape.org/namespaces/inkscape" height="533.89000pt" id="svg17960" inkscape:version="0.48.0 r9654" sodipodi:docname="daisy_flower_7.svg" sodipodi:version="0.32" width="560.28000pt" version="1.1">
  <metadata id="metadata3">
    <rdf:RDF>
      <cc:Work rdf:about="">
        <dc:title/>
        <dc:description/>
        <dc:subject>
          <rdf:Bag>
            <rdf:li/>
            <rdf:li>plant</rdf:li>
            <rdf:li>flower</rdf:li>
          </rdf:Bag>
        </dc:subject>
        <dc:publisher>
          <cc:Agent rdf:about="http://www.openclipart.org">
            <dc:title>Maja Kocoń</dc:title>
          </cc:Agent>
        </dc:publisher>
        <dc:creator>
          <cc:Agent>
            <dc:title>Maja Kocoń</dc:title>
          </cc:Agent>
        </dc:creator>
        <dc:rights>
          <cc:Agent>
            <dc:title>Maja Kocoń</dc:title>
          </cc:Agent>
        </dc:rights>
        <dc:date/>
        <dc:format>image/svg+xml</dc:format>
        <dc:type rdf:resource="http://purl.org/dc/dcmitype/StillImage"/>
        <cc:license rdf:resource="http://web.resource.org/cc/PublicDomain"/>
        <dc:language>en</dc:language>
      </cc:Work>
      <cc:License rdf:about="http://web.resource.org/cc/PublicDomain">
        <cc:permits rdf:resource="http://web.resource.org/cc/Reproduction"/>
        <cc:permits rdf:resource="http://web.resource.org/cc/Distribution"/>
        <cc:permits rdf:resource="http://web.resource.org/cc/DerivativeWorks"/>
      </cc:License>
    </rdf:RDF>
  </metadata>
  <defs id="defs17962"/>
  <sodipodi:namedview bordercolor="#666666" borderopacity="1.0" id="base" inkscape:cx="355.48772" inkscape:cy="356.11163" inkscape:pageopacity="0.0" inkscape:pageshadow="2" inkscape:window-height="684" inkscape:window-width="918" inkscape:window-x="7" inkscape:window-y="16" inkscape:zoom="0.89591114" pagecolor="#ffffff" showgrid="false" inkscape:window-maximized="0" inkscape:current-layer="svg17960"/>
  <g transform="matrix(1.810242,-0.423237,0.423237,1.810242,-536.5919,-531.9388)" inkscape:export-ydpi="79.300003" inkscape:export-xdpi="79.300003" inkscape:export-filename="/home/ironya/flower-01.png" id="g17924" style="fill:#ffffff">
    <path inkscape:connector-curvature="0" style="fill:#ffffff;fill-opacity:1;fill-rule:evenodd;stroke:#000000;stroke-width:1pt;stroke-linecap:butt;stroke-linejoin:miter;stroke-opacity:1" sodipodi:nodetypes="ccccc" id="path912" d="m 333.2532,555.66504 c -12.8249,-44.15607 -42.41977,-86.97407 -86.66211,-103.64988 -19.59944,-7.8261 -41.37703,10.74754 -35.68551,31.26397 3.76918,23.5659 26.33895,30.40507 45.71001,42.05931 27.66206,14.02506 50.07187,23.181 76.63761,30.3266 z"/>
    <path inkscape:connector-curvature="0" style="fill:#ffffff;fill-opacity:1;fill-rule:evenodd;stroke:none" id="path5462" d="m 327.37637,538.81457 c -34.05659,-1.60291 -69.99345,-15.52998 -89.54219,-44.5449 -8.97685,-12.77773 0.73671,-31.69666 16.51521,-31.14464 17.65381,-1.36212 26.10037,16.24218 38.12423,25.67856 14.20114,14.69175 25.23477,32.09224 34.90275,50.01098 z"/>
  </g>
  <g transform="matrix(1.859062,0,0,1.859062,-353.3575,-694.7718)" inkscape:export-ydpi="79.300003" inkscape:export-xdpi="79.300003" inkscape:export-filename="/home/ironya/flower-01.png" id="g17939" style="fill:#ffffff">
    <path inkscape:connector-curvature="0" style="fill:#ffffff;fill-opacity:1;fill-rule:evenodd;stroke:#000000;stroke-width:1pt;stroke-linecap:butt;stroke-linejoin:miter;stroke-opacity:1" sodipodi:nodetypes="ccccc" id="path913" d="m 395.48459,567.9115 c 11.43955,44.53507 39.68283,88.2564 83.38276,106.30579 19.34545,8.4344 41.6925,-9.45005 36.6445,-30.13422 -3.03137,-23.6721 -30.50571,-34.85201 -44.37416,-43.46633 -23.30511,-14.81988 -49.32348,-24.73348 -75.6531,-32.70524 z"/>
    <path inkscape:connector-curvature="0" style="fill:#ffffff;fill-opacity:1;fill-rule:evenodd;stroke:none" id="path5465" d="m 397.55273,571.9688 c 9.1887,32.83275 30.80959,64.73819 63.46531,77.293 14.46345,5.88749 30.72673,-7.81601 26.65535,-23.07018 -2.62578,-17.51051 -21.67447,-21.80031 -33.56379,-31.4057 -17.49877,-10.55048 -36.92818,-17.4073 -56.55687,-22.81712 z"/>
  </g>
  <g transform="matrix(1.782913,0.526624,-0.526624,1.782913,-34.822043,-876.0847)" inkscape:export-ydpi="79.300003" inkscape:export-xdpi="79.300003" inkscape:export-filename="/home/ironya/flower-01.png" id="g17936" style="fill:#ffffff">
    <path inkscape:connector-curvature="0" style="fill:#ffffff;fill-opacity:1;fill-rule:evenodd;stroke:#000000;stroke-width:1pt;stroke-linecap:butt;stroke-linejoin:miter;stroke-opacity:1" sodipodi:nodetypes="ccccc" id="path914" d="m 402.37341,566.67957 c 31.32129,-33.66324 77.01706,-58.58581 124.03112,-53.5714 21.02471,1.8296 32.11609,28.21568 17.8019,43.97706 -13.96955,19.34963 -38.98375,14.61017 -59.74606,16.99405 -27.55335,1.88928 -55.14718,-1.82785 -82.08696,-7.39971 z"/>
    <path inkscape:connector-curvature="0" style="fill:#ffffff;fill-opacity:1;fill-rule:evenodd;stroke:none" id="path5466" d="m 407.5278,563.09862 c 22.76119,-25.38403 56.26272,-44.43836 91.10376,-41.25716 15.57592,1.11582 24.1022,20.59868 13.70464,32.4796 -10.09887,14.5439 -29.08073,9.96738 -43.99208,13.32452 -20.36044,1.72407 -40.81897,-0.71846 -60.81632,-4.54696 z"/>
  </g>
  <g transform="matrix(1.766475,0.579375,-0.579375,1.766475,-14.82279,-877.729)" inkscape:export-ydpi="79.300003" inkscape:export-xdpi="79.300003" inkscape:export-filename="/home/ironya/flower-01.png" id="g17933" style="fill:#ffffff">
    <path inkscape:connector-curvature="0" style="fill:#ffffff;fill-opacity:1;fill-rule:evenodd;stroke:#000000;stroke-width:1pt;stroke-linecap:butt;stroke-linejoin:miter;stroke-opacity:1" sodipodi:nodetypes="ccccc" id="path915" d="m 402.45398,550.73553 c -0.39947,-45.9791 15.64866,-95.49371 53.23628,-124.17537 16.52539,-13.12625 42.72046,-1.59099 43.16216,19.69568 3.15898,23.6554 -14.51657,37.68524 -31.70201,53.41699 -18.70949,20.31532 -41.30289,36.5872 -64.69643,51.0627 z"/>
    <path inkscape:connector-curvature="0" style="fill:#ffffff;fill-opacity:1;fill-rule:evenodd;stroke:none" id="path5467" d="m 408.66945,533.629 c -0.29495,-34.09302 11.61051,-70.74927 39.49251,-91.88248 12.25833,-9.67408 31.68854,-1.02847 32.0155,14.75628 2.34251,17.55065 -14.76442,26.96386 -23.51701,39.49426 -13.87863,14.99677 -30.6381,26.98171 -47.991,37.63194 z"/>
  </g>
  <g transform="matrix(1.848196,0.200717,-0.200717,1.848196,-241.5236,-729.8794)" inkscape:export-ydpi="79.300003" inkscape:export-xdpi="79.300003" inkscape:export-filename="/home/ironya/flower-01.png" id="g17930" style="fill:#ffffff">
    <path inkscape:connector-curvature="0" style="fill:#ffffff;fill-opacity:1;fill-rule:evenodd;stroke:#000000;stroke-width:1pt;stroke-linecap:butt;stroke-linejoin:miter;stroke-opacity:1" sodipodi:nodetypes="ccccc" id="path918" d="m 373.2206,516.10642 c 33.86325,-31.10494 56.35505,-75.39147 51.64201,-122.43671 -1.69485,-21.03601 -28.00933,-32.29623 -43.86212,-18.08333 -19.43879,13.84527 -16.48517,34.0938 -17.37654,59.63595 -2.06575,27.5407 4.19761,53.90913 9.59665,80.88409 z"/>
    <path inkscape:connector-curvature="0" style="fill:#ffffff;fill-opacity:1;fill-rule:evenodd;stroke:none" sodipodi:nodetypes="ccccc" id="path5468" d="m 372.31869,506.29482 c 25.6451,-22.46663 45.5963,-51.03706 42.8175,-85.9125 -0.93593,-15.58777 -20.31907,-24.33839 -32.31922,-14.07866 -14.65952,9.9303 -10.30243,28.96372 -13.83147,43.83533 -1.95901,20.33918 -0.26421,36.11563 3.33319,56.15583 z"/>
  </g>
  <g transform="matrix(1.798762,-0.469648,0.469648,1.798762,-534.0528,-482.9024)" inkscape:export-ydpi="79.300003" inkscape:export-xdpi="79.300003" inkscape:export-filename="/home/ironya/flower-01.png" id="g17927" style="fill:#ffffff">
    <path inkscape:connector-curvature="0" style="fill:#ffffff;fill-opacity:1;fill-rule:evenodd;stroke:#000000;stroke-width:1pt;stroke-linecap:butt;stroke-linejoin:miter;stroke-opacity:1" sodipodi:nodetypes="ccccc" id="path917" d="m 336.2912,532.59125 c 19.73098,-41.53221 26.03422,-93.19949 4.02644,-135.04593 -9.45817,-18.86608 -38.07488,-19.43889 -47.44247,-0.31913 -12.82987,20.12343 -1.89123,40.25561 6.25009,61.80069 8.41066,26.30625 22.04704,50.58141 37.16594,73.56437 z"/>
    <path inkscape:connector-curvature="0" style="fill:#ffffff;fill-opacity:1;fill-rule:evenodd;stroke:none" id="path5469" d="m 333.35573,524.08358 c 16.69584,-29.72658 23.93877,-67.58105 9.70053,-99.53868 -6.07528,-14.3856 -27.26637,-16.17921 -35.16322,-2.50787 -10.51404,14.24666 -0.0652,30.7414 1.56161,45.93918 4.92856,19.83 13.8331,38.41028 23.90108,56.10737 z"/>
  </g>
  <g transform="translate(-13.95228,-139.52281)" inkscape:export-ydpi="79.300003" inkscape:export-xdpi="79.300003" inkscape:export-filename="/home/ironya/flower-01.png" id="g25917" style="fill:#ffffff">
    <path inkscape:connector-curvature="0" style="fill:#ffffff;fill-opacity:1;fill-rule:evenodd;stroke:#000000;stroke-width:1.85906067000000010pt;stroke-linecap:butt;stroke-linejoin:miter;stroke-opacity:1" sodipodi:nodetypes="ccccc" id="path911" d="m 314.1046,481.40535 c -47.78548,70.87719 -124.49632,129.85915 -212.28456,134.245 -39.139571,2.71945 -67.13788,-42.52971 -45.408331,-75.61353 20.05906,-39.5738 63.594131,-45.48825 101.283571,-53.76789 50.05368,-11.43682 105.32499,-7.30589 156.40932,-4.86358 z"/>
    <path inkscape:connector-curvature="0" style="fill:#ffffff;fill-opacity:1;fill-rule:evenodd;stroke:none" id="path4840" d="m 287.08943,486.12128 c -35.30786,52.63845 -92.03063,96.41399 -156.99334,99.60543 -28.96247,1.99072 -49.717241,-31.65989 -33.662271,-56.23074 14.813611,-29.39542 50.944501,-25.89999 77.522061,-35.95211 37.0325,-8.46094 75.32756,-9.27731 113.13355,-7.42258 z"/>
    <path inkscape:connector-curvature="0" style="fill:#ffffff;fill-opacity:1;fill-rule:evenodd;stroke:none" sodipodi:nodetypes="ccccc" id="path5470" d="m 134.06403,564.27086 c 11.14342,-9.80759 10.32064,-17.37558 2.09192,-26.58797 -8.43372,-7.44862 -22.15695,-5.80717 -26.93804,4.1215 -7.2558,5.04032 1.87263,20.01179 3.92233,23.65072 4.81336,4.36837 10.60525,6.30007 20.92379,-1.18425 z"/>
  </g>
  <g transform="matrix(1.847324,0.208587,-0.208587,1.847324,-208.3188,-761.2291)" inkscape:export-ydpi="79.300003" inkscape:export-xdpi="79.300003" inkscape:export-filename="/home/ironya/flower-01.png" id="g17942" style="fill:#ffffff">
    <path inkscape:connector-curvature="0" style="fill:#ffffff;fill-opacity:1;fill-rule:evenodd;stroke:#000000;stroke-width:1pt;stroke-linecap:butt;stroke-linejoin:miter;stroke-opacity:1" sodipodi:nodetypes="ccccc" id="path916" d="m 363.51361,568.58496 c 36.01246,28.58916 64.43661,72.19312 63.11898,119.45547 -0.17767,21.1034 -25.61426,34.22685 -42.4481,21.19078 -20.38413,-12.41151 -19.50752,-37.03086 -22.45525,-57.18429 -2.37089,-29.41611 -1.66092,-56.1686 1.78437,-83.46196 z"/>
    <path inkscape:connector-curvature="0" style="fill:#ffffff;fill-opacity:1;fill-rule:evenodd;stroke:none" id="path5464" d="m 372.40105,581.29981 c -11.03611,32.25871 -11.30363,70.79893 8.48688,99.64949 8.58011,13.04745 29.74562,10.97357 35.03593,-3.90186 7.76003,-15.91521 -5.50336,-30.24484 -9.85561,-44.89668 -8.43838,-18.6095 -20.56067,-35.26988 -33.6672,-50.85095 z"/>
    <path inkscape:connector-curvature="0" style="fill:#ffffff;fill-opacity:1;fill-rule:evenodd;stroke:none" sodipodi:nodetypes="ccccc" id="path6093" d="m 404.20593,679.79327 c 6.3733,-3.43508 6.81672,-7.1259 3.92416,-12.41656 -3.18435,-4.4743 -9.88276,-5.20856 -13.24779,-1.01347 -4.00151,1.59656 -1.31644,9.72608 -0.74409,11.68335 1.80447,2.60937 4.34226,4.16769 10.06772,1.74668 z"/>
  </g>
  <g transform="matrix(1.854825,-0.125438,0.125438,1.854825,-404.9314,-647.4652)" inkscape:export-ydpi="79.300003" inkscape:export-xdpi="79.300003" inkscape:export-filename="/home/ironya/flower-01.png" id="g17946" style="fill:#ffffff">
    <path inkscape:connector-curvature="0" style="fill:#ffffff;fill-opacity:1;fill-rule:evenodd;stroke:#000000;stroke-width:1pt;stroke-linecap:butt;stroke-linejoin:miter;stroke-opacity:1" sodipodi:nodetypes="ccccc" id="path4145" d="m 353.67175,568.77661 c -0.0196,45.98084 -15.44554,93.52067 -50.64937,124.8857 -16.64436,12.97506 -46.44991,6.1e-4 -46.69753,-21.28919 -2.94319,-23.68324 18.66383,-41.13166 32.18768,-53.12572 22.73853,-20.83341 41.63473,-36.2091 65.15922,-50.47079 z"/>
    <path inkscape:connector-curvature="0" style="fill:#ffffff;fill-opacity:1;fill-rule:evenodd;stroke:none" id="path5463" d="m 346.42524,576.70156 c 2.36081,34.01246 -7.30101,71.32291 -33.85083,94.10723 -11.64945,10.39926 -31.56795,2.94724 -32.85103,-12.78868 -3.40197,-17.3764 13.10297,-27.80916 21.07999,-40.84703 12.94416,-15.8104 28.94638,-28.7891 45.62187,-40.47152 z"/>
    <path inkscape:connector-curvature="0" style="fill:#ffffff;fill-opacity:1;fill-rule:evenodd;stroke:none" sodipodi:nodetypes="ccccc" id="path6094" d="m 299.32569,663.12185 c 7.03162,-3.08634 7.52084,-6.40245 4.32949,-11.15599 -3.51327,-4.02005 -10.90357,-4.67977 -14.61619,-0.91058 -4.41483,1.43447 -1.45241,8.73865 -0.82094,10.49721 1.99086,2.34447 4.79078,3.74458 11.10764,1.56936 z"/>
  </g>
  <g transform="matrix(1.859062,0,0,1.859062,-341.1664,-672.7457)" inkscape:export-ydpi="79.300003" inkscape:export-xdpi="79.300003" inkscape:export-filename="/home/ironya/flower-01.png" id="g17954">
    <path transform="matrix(3.09038,0,0,3.568033,-648.7634,-1237.455)" style="fill:#ec8f00;fill-opacity:1;fill-rule:evenodd;stroke:none" sodipodi:type="arc" sodipodi:ry="13.024515" sodipodi:rx="16.745806" sodipodi:cy="499.75061" sodipodi:cx="329.33417" id="path908" d="m 346.07997,499.75061 c 0,7.19324 -7.49735,13.02452 -16.7458,13.02452 -9.24846,0 -16.74581,-5.83128 -16.74581,-13.02452 0,-7.19324 7.49735,-13.02451 16.74581,-13.02451 9.24845,0 16.7458,5.83127 16.7458,13.02451 z"/>
    <path transform="matrix(1.206755,0,0,1.648286,-5.179664,-285.4286)" style="fill:#ffb533;fill-opacity:1;fill-rule:evenodd;stroke:none" sodipodi:type="arc" sodipodi:ry="13.024515" sodipodi:rx="16.745806" sodipodi:cy="499.75061" sodipodi:cx="329.33417" id="path1542" d="m 346.07997,499.75061 c 0,7.19324 -7.49735,13.02452 -16.7458,13.02452 -9.24846,0 -16.74581,-5.83128 -16.74581,-13.02452 0,-7.19324 7.49735,-13.02451 16.74581,-13.02451 9.24845,0 16.7458,5.83127 16.7458,13.02451 z"/>
  </g>
</svg>